<?xml version="1.0" encoding="utf-8"?>
<!-- Generator: Adobe Illustrator 21.0.0, SVG Export Plug-In . SVG Version: 6.00 Build 0)  -->
<svg version="1.1" id="Layer_1" xmlns="http://www.w3.org/2000/svg" xmlns:xlink="http://www.w3.org/1999/xlink" x="0px" y="0px"
	 viewBox="0 0 190.5 76" style="enable-background:new 0 0 190.5 76;" xml:space="preserve">
<style type="text/css">
	.st0{fill:#0B6D39;}
	.st1{fill:#EE4224;}
	.st2{fill:#0B6F3A;}
</style>
<g>
	<g>
		<path class="st0" d="M175.8,6.3c0-0.9,0.2-1.7,0.6-2.4c0.4-0.8,1-1.3,1.8-1.8c0.8-0.4,1.6-0.7,2.4-0.7c0.9,0,1.7,0.2,2.4,0.6
			c0.8,0.4,1.3,1,1.8,1.8c0.4,0.8,0.7,1.6,0.7,2.4s-0.2,1.6-0.6,2.4c-0.4,0.7-1,1.3-1.8,1.8c-0.8,0.4-1.6,0.7-2.5,0.7
			s-1.7-0.2-2.5-0.7c-0.8-0.4-1.3-1-1.8-1.8C176,7.9,175.8,7.1,175.8,6.3z M176.5,6.3c0,0.7,0.2,1.4,0.6,2.1s0.9,1.2,1.5,1.5
			c0.6,0.4,1.3,0.6,2.1,0.6c0.7,0,1.4-0.2,2.1-0.6s1.1-0.9,1.5-1.5s0.6-1.3,0.6-2.1c0-0.7-0.2-1.4-0.6-2.1c-0.4-0.6-0.9-1.1-1.5-1.5
			s-1.3-0.6-2.1-0.6c-0.7,0-1.4,0.2-2.1,0.6c-0.6,0.4-1.1,0.9-1.5,1.5C176.7,4.8,176.5,5.5,176.5,6.3z"/>
	</g>
	<g>
		<path class="st0" d="M178.9,8h-0.7V5.2h-0.9V4.6h2.5v0.6h-0.9L178.9,8L178.9,8z"/>
		<path class="st0" d="M181.8,8L181,5.3l0,0c0,0.5,0,0.9,0,1.1V8h-0.6V4.6h1l0.8,2.6l0,0l0.8-2.6h1V8h-0.7V6.4c0-0.1,0-0.2,0-0.3
			c0-0.1,0-0.4,0-0.8l0,0L182.4,8H181.8z"/>
	</g>
	<g>
		<path class="st1" d="M161.1,47.8c-0.8,0-1.4,0.1-1.9,0.2c-0.5,0.1-1,0.3-1.3,0.6c-0.4,0.3-0.7,0.7-0.9,1.2s-0.4,1.1-0.6,1.9
			l-0.4,1.9l0,0L153.5,65c0,0.1,0,0.2-0.1,0.3l0,0c-0.2,0.7-0.5,1.2-0.8,1.5c-0.4,0.3-1,0.4-1.7,0.4l0,0h-3.1c-0.1,0-0.3,0-0.5-0.1
			c-0.5-0.2-0.9-0.6-1.2-1.3c-0.1-0.2-0.2-0.5-0.2-0.8l-1-6.8c-0.1-0.6-0.1-1.1,0-1.4c0,0,0-0.1,0.1-0.1l0,0
			c0.1-0.1,0.1-0.2,0.2-0.3l0.1-0.1c0,0,0.1,0,0.1-0.1c0.3-0.2,0.7-0.2,1.3-0.2c0.5,0,2.2,0,6.5,0l0.4-2.2H145h-0.7H143
			c-1.8,0-2.5,0.9-2.2,2.8l1.4,9.4c0,0.4,0.1,0.7,0.3,1.1c0.3,0.8,0.8,1.4,1.4,1.7c0.6,0.3,1.4,0.4,2.2,0.4h0.8h1.3h2.9h0.1h1.6
			c0.8,0,1.4-0.1,1.9-0.2s1-0.3,1.3-0.6c0.4-0.3,0.7-0.7,0.9-1.2s0.4-1.1,0.6-1.9l0.3-1.6l0,0l2.5-12c0.2-0.7,0.5-1.2,0.8-1.4
			c0.4-0.3,1-0.4,1.7-0.4h2.5c0.2,0,0.4,0,0.7,0.1c0.2,0.1,0.5,0.2,0.7,0.3l0.5-2.6L161.1,47.8L161.1,47.8z"/>
		<circle class="st1" cx="146.7" cy="72.7" r="1.9"/>
		<circle class="st1" cx="153.1" cy="72.7" r="1.9"/>
		<path class="st1" d="M170.3,53.9l-2.4,11.5c-0.1,0.6-0.4,1-0.8,1.4c-0.4,0.4-0.9,0.5-1.5,0.5c-0.5,0-0.9-0.1-1.2-0.4
			s-0.5-0.6-0.5-1.1c0-0.1,0-0.1,0-0.2s0-0.1,0.1-0.2l2.4-11.5H162c0,0.2,0,0.4,0,0.6c0,0.2,0,0.3,0,0.5s0,0.3,0,0.4
			c0,0.1,0,0.2,0,0.3l-2.4,11.4c0,0.1,0,0.2-0.1,0.3c0,0.1,0,0.2,0,0.3c0,0.5,0.2,0.9,0.5,1.2c0.4,0.3,0.9,0.4,1.5,0.4h3.4
			c0,0,0.1,0,0.2,0l0,0l0,0c0.5,0,1.5-0.2,2.1-1.1l0,0l-0.4,1.9c-0.2,0.9-0.5,1.5-0.9,1.8s-1,0.4-1.7,0.4h-3.8c-0.2,0-0.5,0-0.7-0.1
			s-0.5-0.2-0.7-0.3l-0.5,2.6h7.5c0.8,0,1.4-0.1,1.9-0.2s1-0.3,1.3-0.6c0.4-0.3,0.7-0.7,0.9-1.2s0.4-1.1,0.6-1.9l3.5-16.7
			L170.3,53.9L170.3,53.9z"/>
		<path class="st1" d="M101.6,69.4l2.9-13.5c0-0.1,0-0.3,0-0.4c0-0.2,0-0.3,0-0.5c0-0.3,0-0.7-0.1-1h4.3l-0.2,1.8l1.5-1.2
			c0.3-0.2,0.5-0.4,0.8-0.5c0.2-0.1,0.5-0.2,0.8-0.2h1.6c0.5,0,0.8,0.1,1,0.3s0.3,0.4,0.3,0.6l-2.7,3v-0.2c0-0.9-0.5-1.4-1.5-1.4
			c-0.5,0-1,0.2-1.4,0.5s-0.7,0.8-0.8,1.3l-2.4,11.2h-4.1L101.6,69.4L101.6,69.4z"/>
		<path class="st1" d="M117.1,69.4c-1.6,0-2.8-0.4-3.5-1.3s-1.1-2.1-1.1-3.6c0-0.9,0.1-1.9,0.4-3.2c0.3-1.5,0.7-2.7,1.2-3.7
			s1.1-1.8,1.7-2.4c0.7-0.6,1.4-1,2.3-1.2s1.9-0.4,3-0.4c1.6,0,2.7,0.3,3.5,1s1.2,1.8,1.2,3.4c0,0.9-0.1,2-0.4,3.3H117
			c-0.2,0.8-0.3,1.5-0.4,2.1s-0.1,1.2-0.1,1.7c0,0.9,0.2,1.6,0.7,2.1c0.4,0.4,1.3,0.7,2.5,0.7c0.6,0,1.7-0.1,3.2-0.3v1.8L117.1,69.4
			L117.1,69.4z M121.8,59.3c0.1-0.4,0.1-0.7,0.2-1.1c0.1-0.4,0.1-0.7,0.1-1c0-0.6-0.1-1.1-0.4-1.5c-0.2-0.4-0.7-0.6-1.3-0.6
			c-0.7,0-1.3,0.4-1.8,1.1c-0.5,0.7-0.9,1.8-1.1,3.1H121.8z"/>
		<path class="st1" d="M139.3,57.5c0.1-0.4,0.1-0.7,0.1-1c0-1.7-1.1-2.5-3.3-2.5h-6.6v2.3c0.7-0.3,1.4-0.4,2-0.4h1.7
			c0.8,0,1.3,0.1,1.6,0.4c0.3,0.2,0.5,0.6,0.5,1.1c0,0.1,0,0.2,0,0.3s0,0.2-0.1,0.3l-0.2,0.9c-1.3,0-2.5,0.1-3.5,0.2
			c-1.1,0.1-2,0.4-2.8,0.8c-0.8,0.4-1.5,1-2.1,1.7s-1,1.7-1.2,2.8c-0.2,1-0.3,1.9-0.3,2.6c0,1,0.3,1.7,0.8,2s1.4,0.5,2.5,0.5h2.3
			c0,0,0,0,0.1,0l0,0c0,0,1.6,0.1,2.3-1.1l-0.2,1.1h4.5c-0.1-0.2-0.2-0.4-0.2-0.6s-0.1-0.4-0.1-0.6s0-0.5,0.1-0.9L139.3,57.5z
			 M133.7,65c-0.1,0.6-0.4,1.1-0.8,1.6c-0.4,0.5-1,0.7-1.9,0.7c-0.4,0-0.8-0.1-1.1-0.3c-0.3-0.2-0.4-0.6-0.4-1.1c0-0.1,0-0.2,0-0.3
			c0-0.1,0-0.2,0.1-0.3l0.4-2c0.2-1.1,0.8-1.9,1.6-2.3c0.9-0.4,1.9-0.6,3.1-0.6L133.7,65z"/>
		<polygon class="st1" points="99.4,66.1 76.3,66.1 77.1,68 98.9,68 		"/>
		<polygon class="st1" points="100.5,60.9 74.1,60.9 74.9,62.8 100,62.8 		"/>
		<path class="st1" d="M101.6,55.7H72l0.8,1.9h28.4C101.1,57.7,101.5,55.9,101.6,55.7"/>
		<path class="st2" d="M34.2,15.4c-2.5-3.1-6.1-5-10.6-5.5c-0.9-0.1-1.8-0.2-3-0.2h-1.9L14,9.9H9.7H6.2L3.5,9.8l0.3,2.3v3.3L4,20.5
			v8v8.8l-0.2,6.5l-0.3,2.8l2.8-0.2h3l4.3,0.2l6.4-0.2h0.6c2.4-0.1,4.7-0.6,6.7-1.6c2.2-1,4.1-2.5,5.8-4.4c3.2-3.7,4.8-8.2,4.8-13.5
			C38,22.4,36.7,18.6,34.2,15.4z M20.7,43c-1.3,0.3-2.7,0.5-4.2,0.5h-3.6h-1.1v-2v-5.2l-0.1-7.9l0.1-7.9v-5.2v-2.5h0.8h3.5
			c1.5,0,3.1,0.1,4.6,0.5c4.9,1.2,8.9,4.8,8.9,13.9C29.6,36.5,26.3,41.5,20.7,43z"/>
		<path class="st2" d="M110.2,9.9c-1.4,0.3-3.1,0.3-4.6,0.2c-4.2,8.4-8.2,16.8-12.3,25.1L81.3,10c-1.5,0.1-3,0.1-4.5,0
			c-0.3,1.9-0.5,3.8-0.8,5.7l-0.6,5.1l-1.6,12l-1.1,7.9l-0.6,3.2l-0.5,2.4c1.5-0.2,3.1-0.1,4.7,0c0.7-8.1,1.5-16.1,2.3-24.2
			l11.6,24.3h2l1.7-3.7l4.9-9.9l5.1-10.7l2.4,24.4c2.8-0.3,5.6-0.3,8.4-0.1C113.1,34.2,111.7,22.1,110.2,9.9z"/>
		<path class="st2" d="M162.2,20.3c-6.2,0.1-6.7,2.9-8.8,7l-0.1-6.4c-2.4,0.2-4.8,0.2-7.2,0c1.1,5.3,0.3,19.7,0,25.5h7.8
			c-0.3-4.2-0.4-8.4-0.4-12.5V33c0-0.3,0-0.7,0-1.1c0.8-6.1,8-4,7.9-3.9l0.6-0.5C161.8,25.1,161.9,22.7,162.2,20.3z"/>
		<path class="st2" d="M140.5,44.4c-1.8-0.6-1.3-2.4-1.3-4V29.5c0-4.1-1.6-7.7-5.9-8.9c-1.5-0.4-3.1-0.6-4.5-0.5
			c-3.2,0.3-6.2,1.7-9.1,3.5l0.6,3.3l0.5-0.1c2.7-2.7,5.7-3.1,7.9-2.4c3.9,1.2,5.5,5.6,0,7.5c-0.7,0.2-1.6,0.4-2.6,0.6
			c-4.1,0.6-8.3,2.7-8.3,7.5c0,3.2,1.6,6,5.2,6.9c2,0.5,4,0.4,5.7-0.4c1.3-0.6,2.4-1.5,3.4-2.9c0.3-0.4,1.9,6.7,10,2.4l0.2-1.3
			C141.7,44.7,141,44.6,140.5,44.4z M128.7,43.5c-0.1,0-0.2,0-0.3,0c-2.1,0-3.3-1.5-3.2-4.4c0.1-2.8,1.8-4.1,3.6-4.9
			c1.3-0.6,2.7-0.9,3.6-1.4C132,38.2,132.7,43.2,128.7,43.5z"/>
		<path class="st2" d="M168.6,21.3l-0.2-6.6l7.6-3.4l-0.1,2.1l-0.2,2.6v2.2v3.2c1.5,0,3.1,0.1,4.6-0.4c-0.2,1-0.2,1.9,0,2.9
			l-4.9-0.1V36v3.4c0,1.9,0.1,3.3,0.6,4c1,1.4,3,1.4,4.7,0.6l-0.2,2.2l-1.1,0.4c-4.4,1.6-10.3,1.1-10.9-4.3
			c-0.1-0.6-0.1-1.4-0.1-2.1V36V23.8c-1.2,0.1-2.3,0.1-3.5,0.1c0.2-0.9,0.2-1.8,0-2.8L168.6,21.3L168.6,21.3z"/>
		<path class="st2" d="M37.5,44.8h30.1l0.6,1.5H36.9L37.5,44.8L37.5,44.8z M39.1,41.1h27l0.6,1.3H38.5L39.1,41.1L39.1,41.1z
			 M40.6,37.5h24l0.5,1.2h-25L40.6,37.5L40.6,37.5z M42,34.1h21l0.4,1.1H41.6L42,34.1L42,34.1z M43.4,30.7h18.2l0.4,0.9H43
			L43.4,30.7L43.4,30.7z M44.8,27.5h15.5l0.4,0.8H44.5L44.8,27.5L44.8,27.5z M46.1,24.4H59l0.3,0.7H45.8L46.1,24.4L46.1,24.4z
			 M47.4,21.4h10.3L58,22H47.1L47.4,21.4L47.4,21.4z"/>
		<path class="st2" d="M49.1,9.2c0.4-0.3,1-0.2,1.4,0.2c0.3,0.4,0.2,1-0.2,1.4c-0.4,0.3-1,0.2-1.4-0.2C48.6,10.2,48.7,9.6,49.1,9.2
			L49.1,9.2z M56,9.2c-0.4-0.3-1-0.2-1.4,0.2c-0.3,0.4-0.2,1,0.2,1.4c0.4,0.3,1,0.2,1.4-0.2C56.5,10.2,56.4,9.6,56,9.2L56,9.2z
			 M52.6,6.6c-1.3,7.1-0.4,5.7-7,5.1c6.5,3.1,5.9,1.6,2.7,8.2c2.8-2.3,4.2-4.2,4.3-6.3c0.1,2.1,1.5,3.9,4.3,6.3
			c-3.2-6.7-3.8-5.2,2.7-8.2C53,12.3,53.9,13.6,52.6,6.6L52.6,6.6z"/>
	</g>
</g>
</svg>
